<mxfile host="app.diagrams.net" modified="2021-08-19T11:49:21.666Z" agent="5.0 (X11; Linux x86_64) AppleWebKit/537.36 (KHTML, like Gecko) Chrome/91.0.4472.101 Safari/537.36" etag="qABJSjWwtb59AH4avsfI" version="14.9.7" type="github">
  <diagram id="eLqi2LsaZszeZ6uXdkBi" name="Page-1">
    <mxGraphModel dx="1350" dy="894" grid="1" gridSize="10" guides="1" tooltips="1" connect="1" arrows="1" fold="1" page="1" pageScale="1" pageWidth="850" pageHeight="1100" math="0" shadow="0">
      <root>
        <mxCell id="0" />
        <mxCell id="1" parent="0" />
        <mxCell id="IQaS9pTeqDp9Ufn2F792-1" value="&lt;font style=&quot;font-size: 20px&quot;&gt;map&lt;/font&gt;" style="text;html=1;strokeColor=none;fillColor=none;align=center;verticalAlign=middle;whiteSpace=wrap;rounded=0;" parent="1" vertex="1">
          <mxGeometry x="460" y="225" width="40" height="20" as="geometry" />
        </mxCell>
        <mxCell id="IQaS9pTeqDp9Ufn2F792-2" value="&lt;font style=&quot;font-size: 20px&quot;&gt;base_link&lt;/font&gt;" style="text;html=1;strokeColor=none;fillColor=none;align=center;verticalAlign=middle;whiteSpace=wrap;rounded=0;" parent="1" vertex="1">
          <mxGeometry x="590" y="210" width="110" height="50" as="geometry" />
        </mxCell>
        <mxCell id="IQaS9pTeqDp9Ufn2F792-3" value="" style="shape=flexArrow;endArrow=classic;startArrow=classic;html=1;" parent="1" edge="1">
          <mxGeometry width="100" height="100" relative="1" as="geometry">
            <mxPoint x="510" y="234.5" as="sourcePoint" />
            <mxPoint x="590" y="234.5" as="targetPoint" />
            <Array as="points">
              <mxPoint x="570" y="235" />
            </Array>
          </mxGeometry>
        </mxCell>
        <mxCell id="IQaS9pTeqDp9Ufn2F792-4" value="........" style="rounded=0;whiteSpace=wrap;html=1;" parent="1" vertex="1">
          <mxGeometry x="220" y="260" width="120" height="60" as="geometry" />
        </mxCell>
        <mxCell id="IQaS9pTeqDp9Ufn2F792-5" value="" style="rounded=0;whiteSpace=wrap;html=1;" parent="1" vertex="1">
          <mxGeometry x="340" y="260" width="120" height="60" as="geometry" />
        </mxCell>
        <mxCell id="IQaS9pTeqDp9Ufn2F792-6" value="" style="rounded=0;whiteSpace=wrap;html=1;" parent="1" vertex="1">
          <mxGeometry x="460" y="260" width="120" height="60" as="geometry" />
        </mxCell>
        <mxCell id="IQaS9pTeqDp9Ufn2F792-7" value="" style="rounded=0;whiteSpace=wrap;html=1;" parent="1" vertex="1">
          <mxGeometry x="580" y="260" width="120" height="60" as="geometry" />
        </mxCell>
        <mxCell id="IQaS9pTeqDp9Ufn2F792-8" value="" style="shape=flexArrow;endArrow=classic;html=1;" parent="1" edge="1">
          <mxGeometry width="50" height="50" relative="1" as="geometry">
            <mxPoint x="120" y="289.5" as="sourcePoint" />
            <mxPoint x="190" y="289.5" as="targetPoint" />
          </mxGeometry>
        </mxCell>
        <mxCell id="IQaS9pTeqDp9Ufn2F792-9" value="&lt;font style=&quot;font-size: 19px&quot;&gt;500Hz /tf 回调&lt;/font&gt;" style="text;html=1;strokeColor=none;fillColor=none;align=center;verticalAlign=middle;whiteSpace=wrap;rounded=0;" parent="1" vertex="1">
          <mxGeometry x="70" y="220" width="140" height="60" as="geometry" />
        </mxCell>
        <mxCell id="IQaS9pTeqDp9Ufn2F792-27" value="" style="group" parent="1" vertex="1" connectable="0">
          <mxGeometry x="560" y="280" width="118" height="40" as="geometry" />
        </mxCell>
        <mxCell id="IQaS9pTeqDp9Ufn2F792-22" value="" style="group" parent="IQaS9pTeqDp9Ufn2F792-27" vertex="1" connectable="0">
          <mxGeometry width="118" height="20" as="geometry" />
        </mxCell>
        <mxCell id="IQaS9pTeqDp9Ufn2F792-12" value="&lt;font style=&quot;font-size: 12px&quot;&gt;map&lt;/font&gt;" style="text;html=1;strokeColor=none;fillColor=none;align=center;verticalAlign=middle;whiteSpace=wrap;rounded=0;" parent="IQaS9pTeqDp9Ufn2F792-22" vertex="1">
          <mxGeometry x="20" width="40" height="20" as="geometry" />
        </mxCell>
        <mxCell id="IQaS9pTeqDp9Ufn2F792-13" value="&lt;font style=&quot;font-size: 12px;&quot;&gt;base_link&lt;/font&gt;" style="text;html=1;strokeColor=none;fillColor=none;align=center;verticalAlign=middle;whiteSpace=wrap;rounded=0;fontSize=12;" parent="IQaS9pTeqDp9Ufn2F792-22" vertex="1">
          <mxGeometry x="108" y="9" width="10" as="geometry" />
        </mxCell>
        <mxCell id="IQaS9pTeqDp9Ufn2F792-18" value="" style="shape=flexArrow;endArrow=classic;startArrow=classic;html=1;startWidth=4;startSize=5.32;endWidth=4;endSize=5.32;" parent="IQaS9pTeqDp9Ufn2F792-22" edge="1">
          <mxGeometry width="100" height="100" relative="1" as="geometry">
            <mxPoint x="50" y="10" as="sourcePoint" />
            <mxPoint x="90" y="10" as="targetPoint" />
            <Array as="points">
              <mxPoint x="70" y="10" />
            </Array>
          </mxGeometry>
        </mxCell>
        <mxCell id="IQaS9pTeqDp9Ufn2F792-23" value="at T1" style="text;html=1;strokeColor=none;fillColor=none;align=center;verticalAlign=middle;whiteSpace=wrap;rounded=0;fontSize=12;" parent="IQaS9pTeqDp9Ufn2F792-27" vertex="1">
          <mxGeometry x="50" y="20" width="40" height="20" as="geometry" />
        </mxCell>
        <mxCell id="IQaS9pTeqDp9Ufn2F792-28" value="" style="group" parent="1" vertex="1" connectable="0">
          <mxGeometry x="330" y="280" width="118" height="40" as="geometry" />
        </mxCell>
        <mxCell id="IQaS9pTeqDp9Ufn2F792-29" value="" style="group" parent="IQaS9pTeqDp9Ufn2F792-28" vertex="1" connectable="0">
          <mxGeometry width="118" height="20" as="geometry" />
        </mxCell>
        <mxCell id="IQaS9pTeqDp9Ufn2F792-30" value="&lt;font style=&quot;font-size: 12px&quot;&gt;map&lt;/font&gt;" style="text;html=1;strokeColor=none;fillColor=none;align=center;verticalAlign=middle;whiteSpace=wrap;rounded=0;" parent="IQaS9pTeqDp9Ufn2F792-29" vertex="1">
          <mxGeometry x="9" width="40" height="20" as="geometry" />
        </mxCell>
        <mxCell id="IQaS9pTeqDp9Ufn2F792-31" value="&lt;font style=&quot;font-size: 12px;&quot;&gt;base_link&lt;/font&gt;" style="text;html=1;strokeColor=none;fillColor=none;align=center;verticalAlign=middle;whiteSpace=wrap;rounded=0;fontSize=12;" parent="IQaS9pTeqDp9Ufn2F792-29" vertex="1">
          <mxGeometry x="108" y="9" width="10" as="geometry" />
        </mxCell>
        <mxCell id="IQaS9pTeqDp9Ufn2F792-32" value="" style="shape=flexArrow;endArrow=classic;startArrow=classic;html=1;startWidth=4;startSize=5.32;endWidth=4;endSize=5.32;" parent="IQaS9pTeqDp9Ufn2F792-29" edge="1">
          <mxGeometry width="100" height="100" relative="1" as="geometry">
            <mxPoint x="40" y="10" as="sourcePoint" />
            <mxPoint x="90" y="10" as="targetPoint" />
            <Array as="points">
              <mxPoint x="70" y="10" />
            </Array>
          </mxGeometry>
        </mxCell>
        <mxCell id="IQaS9pTeqDp9Ufn2F792-33" value="at T3" style="text;html=1;strokeColor=none;fillColor=none;align=center;verticalAlign=middle;whiteSpace=wrap;rounded=0;fontSize=12;" parent="IQaS9pTeqDp9Ufn2F792-28" vertex="1">
          <mxGeometry x="50" y="20" width="40" height="20" as="geometry" />
        </mxCell>
        <mxCell id="IQaS9pTeqDp9Ufn2F792-42" value="" style="group" parent="1" vertex="1" connectable="0">
          <mxGeometry x="444" y="280" width="118" height="40" as="geometry" />
        </mxCell>
        <mxCell id="IQaS9pTeqDp9Ufn2F792-43" value="" style="group" parent="IQaS9pTeqDp9Ufn2F792-42" vertex="1" connectable="0">
          <mxGeometry width="118" height="20" as="geometry" />
        </mxCell>
        <mxCell id="IQaS9pTeqDp9Ufn2F792-44" value="&lt;font style=&quot;font-size: 12px&quot;&gt;map&lt;/font&gt;" style="text;html=1;strokeColor=none;fillColor=none;align=center;verticalAlign=middle;whiteSpace=wrap;rounded=0;" parent="IQaS9pTeqDp9Ufn2F792-43" vertex="1">
          <mxGeometry x="20" width="40" height="20" as="geometry" />
        </mxCell>
        <mxCell id="IQaS9pTeqDp9Ufn2F792-45" value="&lt;font style=&quot;font-size: 12px;&quot;&gt;base_link&lt;/font&gt;" style="text;html=1;strokeColor=none;fillColor=none;align=center;verticalAlign=middle;whiteSpace=wrap;rounded=0;fontSize=12;" parent="IQaS9pTeqDp9Ufn2F792-43" vertex="1">
          <mxGeometry x="108" y="9" width="10" as="geometry" />
        </mxCell>
        <mxCell id="IQaS9pTeqDp9Ufn2F792-46" value="" style="shape=flexArrow;endArrow=classic;startArrow=classic;html=1;startWidth=4;startSize=5.32;endWidth=4;endSize=5.32;" parent="IQaS9pTeqDp9Ufn2F792-43" edge="1">
          <mxGeometry width="100" height="100" relative="1" as="geometry">
            <mxPoint x="50" y="10" as="sourcePoint" />
            <mxPoint x="90" y="10" as="targetPoint" />
            <Array as="points">
              <mxPoint x="70" y="10" />
            </Array>
          </mxGeometry>
        </mxCell>
        <mxCell id="IQaS9pTeqDp9Ufn2F792-47" value="at T2" style="text;html=1;strokeColor=none;fillColor=none;align=center;verticalAlign=middle;whiteSpace=wrap;rounded=0;fontSize=12;" parent="IQaS9pTeqDp9Ufn2F792-42" vertex="1">
          <mxGeometry x="50" y="20" width="40" height="20" as="geometry" />
        </mxCell>
        <mxCell id="IQaS9pTeqDp9Ufn2F792-56" value="" style="strokeWidth=2;html=1;shape=mxgraph.flowchart.annotation_2;align=left;labelPosition=right;pointerEvents=1;fontSize=12;rotation=-90;" parent="1" vertex="1">
          <mxGeometry x="440" y="125" width="50" height="470" as="geometry" />
        </mxCell>
        <mxCell id="IQaS9pTeqDp9Ufn2F792-57" value="&lt;font style=&quot;font-size: 16px&quot;&gt;10秒的储存历史&lt;/font&gt;" style="text;html=1;strokeColor=none;fillColor=none;align=center;verticalAlign=middle;whiteSpace=wrap;rounded=0;fontSize=12;" parent="1" vertex="1">
          <mxGeometry x="400" y="390" width="126" height="20" as="geometry" />
        </mxCell>
        <mxCell id="IQaS9pTeqDp9Ufn2F792-63" value="&lt;font style=&quot;font-size: 12px&quot;&gt;map&lt;/font&gt;" style="text;html=1;strokeColor=none;fillColor=none;align=center;verticalAlign=middle;whiteSpace=wrap;rounded=0;" parent="1" vertex="1">
          <mxGeometry x="690" y="410" width="40" height="20" as="geometry" />
        </mxCell>
        <mxCell id="IQaS9pTeqDp9Ufn2F792-64" value="&lt;font style=&quot;font-size: 12px;&quot;&gt;base_link&lt;/font&gt;" style="text;html=1;strokeColor=none;fillColor=none;align=center;verticalAlign=middle;whiteSpace=wrap;rounded=0;fontSize=12;" parent="1" vertex="1">
          <mxGeometry x="778" y="419" width="10" as="geometry" />
        </mxCell>
        <mxCell id="IQaS9pTeqDp9Ufn2F792-65" value="" style="shape=flexArrow;endArrow=classic;startArrow=classic;html=1;startWidth=4;startSize=5.32;endWidth=4;endSize=5.32;" parent="1" edge="1">
          <mxGeometry width="100" height="100" relative="1" as="geometry">
            <mxPoint x="720" y="420" as="sourcePoint" />
            <mxPoint x="760" y="420" as="targetPoint" />
            <Array as="points">
              <mxPoint x="740" y="420" />
            </Array>
          </mxGeometry>
        </mxCell>
        <mxCell id="IQaS9pTeqDp9Ufn2F792-66" value="at T1" style="text;html=1;strokeColor=none;fillColor=none;align=center;verticalAlign=middle;whiteSpace=wrap;rounded=0;fontSize=12;" parent="1" vertex="1">
          <mxGeometry x="720" y="430" width="40" height="20" as="geometry" />
        </mxCell>
        <mxCell id="IQaS9pTeqDp9Ufn2F792-67" value="&lt;font style=&quot;font-size: 12px&quot;&gt;map&lt;/font&gt;" style="text;html=1;strokeColor=none;fillColor=none;align=center;verticalAlign=middle;whiteSpace=wrap;rounded=0;" parent="1" vertex="1">
          <mxGeometry x="100" y="310" width="40" height="20" as="geometry" />
        </mxCell>
        <mxCell id="IQaS9pTeqDp9Ufn2F792-68" value="&lt;font style=&quot;font-size: 12px;&quot;&gt;base_link&lt;/font&gt;" style="text;html=1;strokeColor=none;fillColor=none;align=center;verticalAlign=middle;whiteSpace=wrap;rounded=0;fontSize=12;" parent="1" vertex="1">
          <mxGeometry x="188" y="319" width="10" as="geometry" />
        </mxCell>
        <mxCell id="IQaS9pTeqDp9Ufn2F792-69" value="" style="shape=flexArrow;endArrow=classic;startArrow=classic;html=1;startWidth=4;startSize=5.32;endWidth=4;endSize=5.32;" parent="1" edge="1">
          <mxGeometry width="100" height="100" relative="1" as="geometry">
            <mxPoint x="130" y="320" as="sourcePoint" />
            <mxPoint x="170" y="320" as="targetPoint" />
            <Array as="points">
              <mxPoint x="150" y="320" />
            </Array>
          </mxGeometry>
        </mxCell>
        <mxCell id="IQaS9pTeqDp9Ufn2F792-70" value="at Tn" style="text;html=1;strokeColor=none;fillColor=none;align=center;verticalAlign=middle;whiteSpace=wrap;rounded=0;fontSize=12;" parent="1" vertex="1">
          <mxGeometry x="130" y="330" width="40" height="20" as="geometry" />
        </mxCell>
        <mxCell id="eO_PLTwb6XhVlWbtau_v-1" value="" style="shape=flexArrow;endArrow=classic;html=1;" edge="1" parent="1">
          <mxGeometry width="50" height="50" relative="1" as="geometry">
            <mxPoint x="150" y="810" as="sourcePoint" />
            <mxPoint x="720" y="810" as="targetPoint" />
          </mxGeometry>
        </mxCell>
        <mxCell id="eO_PLTwb6XhVlWbtau_v-2" value="&lt;font style=&quot;font-size: 18px&quot;&gt;T1&lt;/font&gt;" style="text;html=1;strokeColor=none;fillColor=none;align=center;verticalAlign=middle;whiteSpace=wrap;rounded=0;" vertex="1" parent="1">
          <mxGeometry x="290" y="830" width="40" height="20" as="geometry" />
        </mxCell>
        <mxCell id="eO_PLTwb6XhVlWbtau_v-3" value="" style="shape=image;html=1;verticalAlign=top;verticalLabelPosition=bottom;labelBackgroundColor=#ffffff;imageAspect=0;aspect=fixed;image=https://cdn2.iconfinder.com/data/icons/free-1/128/Android__logo__robot-128.png" vertex="1" parent="1">
          <mxGeometry x="260" y="710" width="88" height="88" as="geometry" />
        </mxCell>
        <mxCell id="eO_PLTwb6XhVlWbtau_v-4" value="" style="shape=image;html=1;verticalAlign=top;verticalLabelPosition=bottom;labelBackgroundColor=#ffffff;imageAspect=0;aspect=fixed;image=https://cdn2.iconfinder.com/data/icons/free-1/128/Android__logo__robot-128.png" vertex="1" parent="1">
          <mxGeometry x="472" y="710" width="88" height="88" as="geometry" />
        </mxCell>
        <mxCell id="eO_PLTwb6XhVlWbtau_v-5" value="&lt;font style=&quot;font-size: 18px&quot;&gt;T2&lt;/font&gt;" style="text;html=1;strokeColor=none;fillColor=none;align=center;verticalAlign=middle;whiteSpace=wrap;rounded=0;" vertex="1" parent="1">
          <mxGeometry x="496" y="830" width="40" height="20" as="geometry" />
        </mxCell>
        <mxCell id="eO_PLTwb6XhVlWbtau_v-6" value="" style="shape=image;html=1;verticalAlign=top;verticalLabelPosition=bottom;labelBackgroundColor=#ffffff;imageAspect=0;aspect=fixed;image=https://cdn3.iconfinder.com/data/icons/spring-2-1/30/Tulip-128.png" vertex="1" parent="1">
          <mxGeometry x="170" y="560" width="78" height="78" as="geometry" />
        </mxCell>
        <mxCell id="eO_PLTwb6XhVlWbtau_v-7" value="" style="endArrow=classic;startArrow=classic;html=1;" edge="1" parent="1">
          <mxGeometry width="50" height="50" relative="1" as="geometry">
            <mxPoint x="280" y="700" as="sourcePoint" />
            <mxPoint x="220" y="640" as="targetPoint" />
          </mxGeometry>
        </mxCell>
        <mxCell id="eO_PLTwb6XhVlWbtau_v-8" value="S1" style="text;html=1;strokeColor=none;fillColor=none;align=center;verticalAlign=middle;whiteSpace=wrap;rounded=0;" vertex="1" parent="1">
          <mxGeometry x="240" y="650" width="40" height="20" as="geometry" />
        </mxCell>
        <mxCell id="eO_PLTwb6XhVlWbtau_v-9" value="" style="endArrow=classic;startArrow=classic;html=1;entryX=-0.011;entryY=0.591;entryDx=0;entryDy=0;entryPerimeter=0;" edge="1" parent="1" target="eO_PLTwb6XhVlWbtau_v-4">
          <mxGeometry width="50" height="50" relative="1" as="geometry">
            <mxPoint x="340" y="760" as="sourcePoint" />
            <mxPoint x="390" y="710" as="targetPoint" />
          </mxGeometry>
        </mxCell>
        <mxCell id="eO_PLTwb6XhVlWbtau_v-10" value="M1" style="text;html=1;strokeColor=none;fillColor=none;align=center;verticalAlign=middle;whiteSpace=wrap;rounded=0;" vertex="1" parent="1">
          <mxGeometry x="380" y="730" width="40" height="20" as="geometry" />
        </mxCell>
        <mxCell id="eO_PLTwb6XhVlWbtau_v-11" value="" style="endArrow=classic;startArrow=classic;html=1;" edge="1" parent="1">
          <mxGeometry width="50" height="50" relative="1" as="geometry">
            <mxPoint x="490" y="700" as="sourcePoint" />
            <mxPoint x="250" y="580" as="targetPoint" />
          </mxGeometry>
        </mxCell>
        <mxCell id="eO_PLTwb6XhVlWbtau_v-12" value="S1`" style="text;html=1;strokeColor=none;fillColor=none;align=center;verticalAlign=middle;whiteSpace=wrap;rounded=0;" vertex="1" parent="1">
          <mxGeometry x="390" y="618" width="40" height="20" as="geometry" />
        </mxCell>
        <mxCell id="eO_PLTwb6XhVlWbtau_v-13" value="&lt;font style=&quot;font-size: 17px&quot;&gt;运动时间&lt;/font&gt;" style="text;html=1;strokeColor=none;fillColor=none;align=center;verticalAlign=middle;whiteSpace=wrap;rounded=0;" vertex="1" parent="1">
          <mxGeometry x="640" y="840" width="50" height="20" as="geometry" />
        </mxCell>
        <mxCell id="eO_PLTwb6XhVlWbtau_v-15" value="&lt;font style=&quot;font-size: 19px&quot;&gt;&lt;b&gt;S1` = S1 + M1&lt;/b&gt;&lt;/font&gt;" style="text;html=1;strokeColor=none;fillColor=none;align=center;verticalAlign=middle;whiteSpace=wrap;rounded=0;" vertex="1" parent="1">
          <mxGeometry x="510" y="618" width="130" height="20" as="geometry" />
        </mxCell>
      </root>
    </mxGraphModel>
  </diagram>
</mxfile>
